<svg width="20" height="20" viewBox="0 0 20 20" fill="none" xmlns="http://www.w3.org/2000/svg">
<path d="M15.5642 16.3392L10.8017 11.5758C8.68305 13.0821 5.76369 12.7136 4.08572 10.7283C2.40775 8.74293 2.53096 5.803 4.36916 3.96501C6.20688 2.12621 9.1471 2.00247 11.1328 3.68035C13.1185 5.35823 13.4872 8.27788 11.9808 10.3967L16.7433 15.16L15.565 16.3383L15.5642 16.3392ZM7.90416 4.16666C6.32391 4.16631 4.96057 5.27557 4.63956 6.82287C4.31854 8.37017 5.12809 9.93023 6.57806 10.5585C8.02803 11.1868 9.71991 10.7107 10.6294 9.41838C11.5388 8.12607 11.4159 6.37277 10.335 5.22001L10.8392 5.72001L10.2708 5.15334L10.2608 5.14334C9.63732 4.51599 8.78866 4.16428 7.90416 4.16666Z" fill="#9590A0"/>
</svg>
