<svg xmlns="http://www.w3.org/2000/svg" viewBox="0 0 265.5 156.15"><path d="M226.5,128.5c-13.23-25.67-47.05-41-85-41-30.49,0-60.72,8.7-77,27-9.26,10.41-12.4,23.9-12.92,37.57,0,1.48-.08,3-.08,4.43,0,20.55,9.32,42,27,55,16.06,11.78,39.34,16,63,16,24.69,0,48.74-6.3,65-19a65.57,65.57,0,0,0,25-52C231.5,147.23,230.6,136.45,226.5,128.5ZM100,163.5c-9.66,0-17.5-9.63-17.5-21.5s7.84-21.5,17.5-21.5,17.5,9.63,17.5,21.5S109.66,163.5,100,163.5Zm65.53,14c1.31.3-1.66,20.3-10.21,31.26-5.67-6.29-2.82,1.72-3.21,3.4a13.22,13.22,0,0,1-11.61,3.32c-3-.6-5-1.78-8-3.73a.71.71,0,0,1-.18-.78c1.3-4.05.17-4.49.17-4.49-.74-.51-2.84,2.23-3,2-7.6-11.14-9.36-28.07-9.51-29.7l-.49-.3-.3-.19c-1.34-.9-6.7-5.06-6.71-13.81h19a3.08,3.08,0,0,1-.25-.27,2.74,2.74,0,0,1-.69-1.73c0-2.76,4.92-5,11-5s11,2.24,11,5a2.69,2.69,0,0,1-.59,1.61c-.1.13-.22.26-.34.39h18.94C171.44,169.17,167.13,176.47,165.53,177.52Zm15.47-13c-9.66,0-17.5-9.63-17.5-21.5s7.84-21.5,17.5-21.5,17.5,9.63,17.5,21.5S190.66,164.5,181,164.5Z" transform="translate(-7.5 -71.6)" style="stroke:#000;stroke-linecap:round;stroke-linejoin:round;stroke-width:0.5px"/><path d="M57.49,124.33S33.19,73.5,49.67,73.5,93,95.62,93,95.62,71.5,104.12,57.49,124.33Z" transform="translate(-7.5 -71.6)" style="stroke:#000;stroke-miterlimit:10"/><path d="M187.57,95.3S227.5,61.5,234.5,75.5s-11.38,47.85-11.38,47.85A88.61,88.61,0,0,0,187.57,95.3Z" transform="translate(-7.5 -71.6)" style="stroke:#000;stroke-miterlimit:10"/><path d="M52.27,142.49a59.14,59.14,0,0,0-12.48-.59A52.28,52.28,0,0,0,27.44,144a40.05,40.05,0,0,0-5.86,2.26,35,35,0,0,0-5.41,3.18A34,34,0,0,0,7.5,158.5,34,34,0,0,1,16,149.25a35,35,0,0,1,5.39-3.32,41.07,41.07,0,0,1,5.87-2.4,52.71,52.71,0,0,1,12.45-2.38,60.09,60.09,0,0,1,12.71.36Z" transform="translate(-7.5 -71.6)"/><path d="M51.62,151.15a53,53,0,0,0-9.57,1.46,53.71,53.71,0,0,0-9.2,3.15,42.3,42.3,0,0,0-8.39,4.92l-1.91,1.51-1.78,1.68-.88.84-.8.93L17.5,167.5l1.55-1.9.77-.95.86-.87,1.74-1.73,1.89-1.57a43.12,43.12,0,0,1,8.33-5.18,54.83,54.83,0,0,1,9.22-3.41,53.8,53.8,0,0,1,9.72-1.74Z" transform="translate(-7.5 -71.6)"/><path d="M229.78,142a54.66,54.66,0,0,1,12.32-.35,48.49,48.49,0,0,1,12,2.43,36.17,36.17,0,0,1,5.65,2.43,32.83,32.83,0,0,1,5.15,3.33A33.42,33.42,0,0,1,273,159a33.37,33.37,0,0,0-13.38-12.15,37.11,37.11,0,0,0-5.63-2.29,48.1,48.1,0,0,0-11.94-2.15A54.84,54.84,0,0,0,230,143Z" transform="translate(-7.5 -71.6)"/><path d="M230,149.94a51,51,0,0,1,9.47,1.75,51.58,51.58,0,0,1,8.95,3.45,40.46,40.46,0,0,1,8,5.19l1.82,1.56,1.66,1.72.82.87.74.94,1.48,1.87-1.52-1.83-.77-.92-.84-.84-1.7-1.67-1.85-1.5a40.1,40.1,0,0,0-8.09-4.94,51.55,51.55,0,0,0-8.93-3.17,49.55,49.55,0,0,0-9.32-1.48Z" transform="translate(-7.5 -71.6)"/><path d="M129.08,187.77s-4-.33-4.16-10.38l4,.33.18,9.91" transform="translate(-7.5 -71.6)" style="stroke:#000;stroke-linecap:round;stroke-linejoin:round;stroke-width:0.5px"/><path d="M156.62,188s3.89-.92,2.56-10.88l-3.89.92,1.3,9.83" transform="translate(-7.5 -71.6)" style="stroke:#000;stroke-linecap:round;stroke-linejoin:round;stroke-width:0.5px"/><path d="M151.91,163.66c-1.47,2-5.57,3.39-10.41,3.39s-8.76-1.36-10.31-3.27l-18.69.11s2.1,12.28,14,14.26c9-.1,14-4.15,15-6.78,0,0,4,7.72,15,6.68,14-3.1,14-14.5,14-14.5Z" transform="translate(-7.5 -71.6)"/><path d="M100.7,129c-6.06,0-11,6-11,13.49S94.64,156,100.7,156s11-6,11-13.48S106.77,129,100.7,129Zm1.39,21.51a7.5,7.5,0,1,1,7.59-7.5A7.55,7.55,0,0,1,102.09,150.5Z" transform="translate(-7.5 -71.6)" style="stroke:#000;stroke-linecap:round;stroke-linejoin:round;stroke-width:0.5px"/><path d="M102.2,139.71a3.27,3.27,0,1,0,3.3,3.27A3.28,3.28,0,0,0,102.2,139.71Z" transform="translate(-7.5 -71.6)" style="stroke:#000;stroke-linecap:round;stroke-linejoin:round;stroke-width:0.5px"/><path d="M181.48,128.5c-6.07,0-11,6-11,13.49s4.91,13.48,11,13.48,11-6,11-13.48S187.54,128.5,181.48,128.5ZM179.7,151a7.5,7.5,0,1,1,7.59-7.5A7.55,7.55,0,0,1,179.7,151Z" transform="translate(-7.5 -71.6)" style="stroke:#000;stroke-linecap:round;stroke-linejoin:round;stroke-width:0.5px"/><ellipse cx="171.99" cy="71.14" rx="3.81" ry="3.76" style="stroke:#000;stroke-linecap:round;stroke-linejoin:round;stroke-width:0.5px"/></svg>