<?xml version="1.0" encoding="utf-8"?>
<!-- Generator: Adobe Illustrator 24.3.0, SVG Export Plug-In . SVG Version: 6.00 Build 0)  -->
<svg version="1.1" xmlns="http://www.w3.org/2000/svg" xmlns:xlink="http://www.w3.org/1999/xlink" x="0px" y="0px"
	 viewBox="0 0 279 300" enable-background="new 0 0 279 300" xml:space="preserve">
<g id="head">
	<path stroke="#000000" stroke-width="0.5" stroke-linecap="round" stroke-linejoin="round" d="M226.5,128.5
		c-13.23-25.67-47.05-41-85-41c-30.49,0-60.72,8.7-77,27c-9.26,10.41-12.4,23.9-12.92,37.57c-0.06,1.47-0.08,2.95-0.08,4.43
		c0,20.55,9.32,42.04,27,55c16.06,11.78,39.34,16,63,16c24.69,0,48.74-6.3,65-19c16.48-12.87,25-32.26,25-52
		C231.5,147.23,230.6,136.45,226.5,128.5z M100,163.5c-9.66,0-17.5-9.63-17.5-21.5c0-11.87,7.84-21.5,17.5-21.5s17.5,9.63,17.5,21.5
		C117.5,153.87,109.66,163.5,100,163.5z M165.53,177.52c1.31,0.3-1.66,20.31-10.21,31.26c-5.67-6.29-2.82,1.72-3.21,3.4
		c-3.24,2.78-7.09,4.22-11.61,3.32c-3.01-0.6-5.03-1.78-7.99-3.73c-0.14-0.09-0.3-0.41-0.18-0.78c1.3-4.06,0.17-4.49,0.17-4.49
		c-0.74-0.51-2.84,2.23-3,2c-7.6-11.14-9.36-28.07-9.51-29.7c-0.28-0.17-0.49-0.3-0.49-0.3l-0.3-0.19c-1.34-0.9-6.7-5.06-6.71-13.81
		h18.94c-0.09-0.09-0.17-0.18-0.25-0.27c-0.44-0.54-0.69-1.12-0.69-1.73c0-2.76,4.92-5,11-5s11,2.24,11,5c0,0.56-0.21,1.1-0.59,1.61
		c-0.1,0.13-0.21,0.26-0.34,0.39h18.94C171.44,169.17,167.13,176.47,165.53,177.52z M181,164.5c-9.66,0-17.5-9.63-17.5-21.5
		c0-11.87,7.84-21.5,17.5-21.5s17.5,9.63,17.5,21.5C198.5,154.87,190.66,164.5,181,164.5z"/>
	<path stroke="#000000" stroke-miterlimit="10" d="M57.49,124.33c0,0-24.3-50.83-7.83-50.83S93,95.62,93,95.62
		S71.5,104.12,57.49,124.33z"/>
	<path stroke="#000000" stroke-miterlimit="10" d="M187.57,95.3c0,0,39.93-33.8,46.93-19.8s-11.38,47.85-11.38,47.85
		S210.64,105.09,187.57,95.3z"/>
	<g>
		<path d="M52.27,142.49c-4.09-0.66-8.32-0.81-12.48-0.59c-4.18,0.23-8.34,0.89-12.35,2.11c-2.01,0.59-3.96,1.36-5.85,2.26
			c-1.9,0.89-3.71,1.96-5.41,3.18c-3.44,2.41-6.35,5.54-8.67,9.05c2.26-3.55,5.11-6.75,8.53-9.25c1.69-1.27,3.5-2.38,5.39-3.32
			c1.89-0.95,3.85-1.76,5.87-2.4c4.03-1.31,8.23-2.07,12.45-2.38c4.23-0.3,8.47-0.24,12.71,0.36L52.27,142.49z"/>
	</g>
	<g>
		<path d="M51.62,151.15c-3.19,0.17-6.43,0.71-9.57,1.47c-3.15,0.77-6.23,1.82-9.2,3.14c-2.98,1.29-5.78,2.99-8.39,4.92l-1.92,1.51
			l-1.77,1.68l-0.88,0.84l-0.8,0.93l-1.59,1.86l1.55-1.9l0.77-0.95l0.86-0.87l1.74-1.73l1.89-1.57c2.57-2.01,5.35-3.8,8.33-5.18
			c2.96-1.41,6.05-2.55,9.22-3.42c3.18-0.85,6.4-1.48,9.72-1.74L51.62,151.15z"/>
	</g>
	<g>
		<path d="M229.78,142.01c4.11-0.61,8.22-0.66,12.32-0.35c4.09,0.32,8.16,1.09,12.04,2.43c1.94,0.65,3.84,1.47,5.64,2.43
			c1.82,0.95,3.55,2.06,5.15,3.33c3.26,2.49,5.93,5.67,8.06,9.15c-2.2-3.43-4.93-6.54-8.21-8.95c-1.62-1.23-3.36-2.3-5.17-3.2
			c-1.81-0.92-3.69-1.69-5.63-2.29c-3.86-1.24-7.89-1.92-11.94-2.15c-4.04-0.23-8.14-0.08-12.09,0.59L229.78,142.01z"/>
	</g>
	<g>
		<path d="M230.02,149.94c3.24,0.26,6.38,0.9,9.47,1.75c3.08,0.87,6.09,2.02,8.95,3.45c2.88,1.39,5.57,3.17,8.04,5.19l1.82,1.56
			l1.66,1.72l0.83,0.86l0.74,0.94l1.48,1.88l-1.52-1.84l-0.76-0.92l-0.85-0.84l-1.7-1.67l-1.85-1.5c-2.5-1.94-5.21-3.64-8.1-4.94
			c-2.87-1.33-5.86-2.39-8.93-3.17c-3.06-0.77-6.21-1.31-9.32-1.48L230.02,149.94z"/>
	</g>
	<path stroke="#000000" stroke-width="0.5" stroke-linecap="round" stroke-linejoin="round" d="M129.08,187.77
		c0,0-3.99-0.33-4.15-10.38l3.99,0.33l0.18,9.91"/>
	<path stroke="#000000" stroke-width="0.5" stroke-linecap="round" stroke-linejoin="round" d="M156.62,188.02
		c0,0,3.89-0.92,2.56-10.88l-3.89,0.92l1.3,9.83"/>
	<path d="M151.91,163.66c-1.47,1.97-5.57,3.39-10.41,3.39c-4.74,0-8.76-1.36-10.31-3.27l-18.69,0.11c0,0,2.1,12.28,14.06,14.26
		c8.95-0.1,13.95-4.15,14.95-6.78c0,0,4,7.72,15,6.69c14-3.11,14-14.5,14-14.5L151.91,163.66z"/>
</g>
<g id="eyes">
	<g id="leftEye">
		<path class="lEye" d="M92.54,154.93c-3.5-2.91-5.5-7.55-5.41-12.21c0.14-4.66,2.39-9.31,6.3-12.15c3.92-2.85,9.49-3.14,13.77-0.79
			c1.09,0.56,2.06,1.3,2.94,2.15c0.89,0.86,1.63,1.89,2.16,3.01c1.08,2.24,1.39,4.85,0.8,7.27c-0.3,1.21-0.81,2.36-1.49,3.4
			c-0.68,1.03-1.53,1.99-2.59,2.71c-2.09,1.45-4.81,1.93-7.27,1.29c-1.22-0.32-2.37-0.92-3.35-1.72c-0.98-0.79-1.81-1.86-2.25-3.07
			c-0.47-1.2-0.59-2.52-0.38-3.78c0.23-1.26,0.78-2.46,1.62-3.42c0.81-1,2.01-1.7,3.26-1.97c1.27-0.26,2.61-0.09,3.75,0.48
			c1.12,0.58,2.11,1.54,2.54,2.78c0.44,1.21,0.34,2.6-0.28,3.72c-0.31,0.55-0.72,1.04-1.24,1.42c-0.52,0.38-1.14,0.6-1.77,0.66
			c-1.26,0.12-2.54-0.45-3.24-1.49c-0.7-1.05-0.58-2.52,0.25-3.4c0.8-0.95,2.35-0.96,3.14-0.11c-0.87-0.77-2.29-0.58-2.9,0.3
			c-0.68,0.84-0.67,2.09-0.05,2.9c0.63,0.81,1.73,1.21,2.71,1.04c1.01-0.15,1.81-0.87,2.23-1.78c0.43-0.9,0.45-1.97,0.08-2.86
			c-0.36-0.9-1.14-1.59-2.04-2c-0.9-0.39-1.92-0.49-2.87-0.26c-0.94,0.25-1.79,0.77-2.38,1.56c-1.27,1.54-1.56,3.76-0.81,5.56
			c0.71,1.81,2.52,3.12,4.43,3.6c1.94,0.47,4.06,0.09,5.69-1.06c0.81-0.55,1.49-1.33,2.05-2.18c0.55-0.85,0.96-1.8,1.2-2.79
			c0.5-1.98,0.26-4.12-0.61-5.96c-0.85-1.85-2.43-3.33-4.25-4.35c-1.81-1.04-3.93-1.52-6.03-1.46c-1.05,0.04-2.09,0.24-3.1,0.54
			c-0.99,0.34-1.98,0.76-2.86,1.35c-3.51,2.37-5.86,6.56-6.2,10.91c-0.18,2.18,0.11,4.42,0.88,6.51
			C89.74,151.36,90.96,153.3,92.54,154.93z"/>
	</g>
	<g id="rightEye">
		<path class="rEye" d="M187.95,154.93c1.58-1.62,2.8-3.56,3.56-5.65c0.76-2.09,1.06-4.33,0.88-6.51c-0.34-4.35-2.69-8.54-6.2-10.91
			c-0.88-0.6-1.86-1.01-2.86-1.35c-1.01-0.3-2.05-0.49-3.1-0.54c-2.1-0.06-4.22,0.42-6.03,1.46c-1.82,1.02-3.41,2.5-4.25,4.35
			c-0.87,1.84-1.11,3.98-0.61,5.96c0.24,0.99,0.65,1.93,1.2,2.79c0.56,0.86,1.24,1.63,2.05,2.18c1.62,1.14,3.75,1.52,5.69,1.06
			c1.92-0.48,3.72-1.79,4.43-3.6c0.75-1.8,0.46-4.02-0.81-5.56c-0.59-0.79-1.44-1.31-2.38-1.56c-0.95-0.23-1.97-0.13-2.87,0.26
			c-0.9,0.42-1.68,1.1-2.04,2c-0.38,0.9-0.36,1.96,0.08,2.86c0.42,0.91,1.22,1.63,2.23,1.78c0.98,0.17,2.09-0.23,2.71-1.04
			c0.63-0.81,0.63-2.07-0.05-2.9c-0.61-0.88-2.04-1.08-2.9-0.3c0.78-0.85,2.33-0.84,3.14,0.11c0.83,0.88,0.95,2.35,0.25,3.4
			c-0.7,1.04-1.98,1.61-3.24,1.49c-0.63-0.06-1.25-0.28-1.77-0.66c-0.53-0.38-0.93-0.87-1.24-1.42c-0.62-1.11-0.72-2.5-0.28-3.72
			c0.43-1.24,1.42-2.2,2.54-2.78c1.14-0.57,2.49-0.75,3.75-0.48c1.26,0.27,2.46,0.97,3.26,1.97c0.84,0.95,1.39,2.16,1.62,3.42
			c0.2,1.26,0.09,2.58-0.38,3.78c-0.44,1.21-1.27,2.28-2.25,3.07c-0.97,0.8-2.12,1.4-3.35,1.72c-2.45,0.65-5.17,0.16-7.27-1.29
			c-1.06-0.72-1.91-1.68-2.59-2.71c-0.68-1.04-1.19-2.19-1.49-3.4c-0.59-2.42-0.28-5.03,0.8-7.27c0.53-1.12,1.27-2.15,2.16-3.01
			c0.88-0.85,1.85-1.59,2.94-2.15c4.28-2.34,9.85-2.06,13.77,0.79c3.92,2.84,6.16,7.48,6.3,12.15
			C193.45,147.38,191.45,152.01,187.95,154.93z"/>
	</g>
</g>
</svg>
